{
	"asset":{
		"version":"2.0",
		"generator":"Maxon Cinema 4D 2023.2.2 (#200000219)"
	},
	"scenes":[{
		"nodes":[0]
	}],
	"nodes":[{
		"name":"gp",
		"translation":[0.0,
		0.0,
		0.0],
		"rotation":[0.0,
		-0.7071067690849304,
		0.0,
		-0.7071067690849304],
		"scale":[1.0,
		1.0,
		1.0],
		"children":[1,
		2,
		3,
		4,
		5,
		6,
		7,
		8,
		9,
		10,
		11,
		12,
		13,
		14,
		15,
		16]
	},
	{
		"name":"top01",
		"mesh":0,
		"translation":[0.5546231269836426,
		3.0421297550201418,
		0.0],
		"rotation":[0.0,
		0.0,
		0.0,
		-1.0],
		"scale":[1.0,
		1.0,
		1.0]
	},
	{
		"name":"top02",
		"mesh":1,
		"translation":[0.5546231269836426,
		2.9921295642852785,
		0.0],
		"rotation":[0.0,
		0.0,
		0.0,
		-1.0],
		"scale":[1.0,
		1.0,
		1.0]
	},
	{
		"name":"top03",
		"mesh":2,
		"translation":[0.5244113206863403,
		2.9503517150878908,
		0.0],
		"rotation":[0.0,
		0.0,
		0.0,
		-1.0],
		"scale":[1.0,
		1.0,
		1.0]
	},
	{
		"name":"pannel",
		"mesh":3,
		"translation":[-0.9490149617195129,
		2.803574562072754,
		0.012702585197985173],
		"rotation":[0.0,
		-0.7071067690849304,
		0.0,
		-0.7071067690849304],
		"scale":[1.0,
		1.0,
		1.0]
	},
	{
		"name":"botton",
		"mesh":4,
		"translation":[-0.4990656077861786,
		1.4112781286239625,
		-0.8612880110740662],
		"rotation":[0.0,
		0.0,
		0.0,
		-1.0],
		"scale":[1.0,
		1.0,
		1.0]
	},
	{
		"name":"botton_pannel",
		"mesh":5,
		"translation":[-0.4990149438381195,
		1.6535744667053223,
		-0.8445208668708801],
		"rotation":[0.0,
		0.0,
		0.0,
		-1.0],
		"scale":[1.0,
		1.0,
		1.0]
	},
	{
		"name":"botton_base",
		"mesh":6,
		"translation":[-0.49848687648773196,
		1.4806249141693116,
		-0.8562800884246826],
		"rotation":[0.0,
		0.0,
		0.0,
		-1.0],
		"scale":[1.0,
		1.0,
		1.0]
	},
	{
		"name":"Handle01",
		"mesh":7,
		"translation":[0.10462314635515213,
		1.078766942024231,
		-0.800000011920929],
		"rotation":[0.0,
		-0.7071067690849304,
		0.0,
		0.7071067690849304],
		"scale":[1.0,
		1.0,
		1.0]
	},
	{
		"name":"handle02",
		"mesh":8,
		"translation":[0.10462314635515213,
		1.078766942024231,
		0.8500000238418579],
		"rotation":[0.0,
		-0.7071067690849304,
		0.0,
		0.7071067690849304],
		"scale":[1.0,
		1.0,
		1.0]
	},
	{
		"name":"handle03",
		"mesh":9,
		"translation":[1.061260461807251,
		1.078766942024231,
		0.0],
		"rotation":[0.0,
		0.0,
		0.0,
		-1.0],
		"scale":[1.0,
		1.0,
		1.0]
	},
	{
		"name":"RT_wall01",
		"mesh":10,
		"translation":[0.05000000074505806,
		1.42666494846344,
		0.918779194355011],
		"rotation":[0.0,
		0.0,
		0.0,
		-1.0],
		"scale":[1.0,
		1.0,
		1.0]
	},
	{
		"name":"Back_wall",
		"mesh":11,
		"translation":[1.0995206832885743,
		1.4316543340682984,
		-0.0026211696676909925],
		"rotation":[0.0,
		-0.7071067690849304,
		0.0,
		-0.7071067690849304],
		"scale":[1.0,
		1.0,
		1.0]
	},
	{
		"name":"LF_wall01",
		"mesh":12,
		"translation":[0.5,
		1.42666494846344,
		-0.9312207698822022],
		"rotation":[0.0,
		0.0,
		0.0,
		-1.0],
		"scale":[1.0,
		1.0,
		1.0]
	},
	{
		"name":"LF_wall02",
		"mesh":13,
		"translation":[-0.5,
		1.42666494846344,
		-0.9312207698822022],
		"rotation":[0.0,
		0.0,
		0.0,
		-1.0],
		"scale":[1.0,
		1.0,
		1.0]
	},
	{
		"name":"top_bar",
		"mesh":14,
		"translation":[-1.0499999523162842,
		2.799896717071533,
		0.0],
		"rotation":[0.0,
		0.0,
		0.0,
		-1.0],
		"scale":[1.0,
		1.0,
		1.0]
	},
	{
		"name":"floor",
		"mesh":15,
		"translation":[0.07441132515668869,
		0.0,
		0.0],
		"rotation":[0.0,
		0.0,
		0.0,
		-1.0],
		"scale":[1.0,
		1.0,
		1.0]
	}],
	"meshes":[{
		"name":"top01",
		"primitives":[{
			"attributes":{
				"POSITION":1,
				"NORMAL":2,
				"TEXCOORD_0":3
			},
			"material":0,
			"indices":0
		}]
	},
	{
		"name":"top02",
		"primitives":[{
			"attributes":{
				"POSITION":5,
				"NORMAL":6,
				"TEXCOORD_0":7
			},
			"material":0,
			"indices":4
		}]
	},
	{
		"name":"top03",
		"primitives":[{
			"attributes":{
				"POSITION":9,
				"NORMAL":10,
				"TEXCOORD_0":11
			},
			"material":0,
			"indices":8
		}]
	},
	{
		"name":"pannel",
		"primitives":[{
			"attributes":{
				"POSITION":13,
				"NORMAL":14,
				"TEXCOORD_0":15
			},
			"material":1,
			"indices":12
		}]
	},
	{
		"name":"botton",
		"primitives":[{
			"attributes":{
				"POSITION":17,
				"NORMAL":18,
				"TEXCOORD_0":19
			},
			"material":1,
			"indices":16
		}]
	},
	{
		"name":"botton_pannel",
		"primitives":[{
			"attributes":{
				"POSITION":21,
				"NORMAL":22,
				"TEXCOORD_0":23
			},
			"material":1,
			"indices":20
		}]
	},
	{
		"name":"botton_base",
		"primitives":[{
			"attributes":{
				"POSITION":25,
				"NORMAL":26,
				"TEXCOORD_0":27
			},
			"material":0,
			"indices":24
		}]
	},
	{
		"name":"Handle01",
		"primitives":[{
			"attributes":{
				"POSITION":29,
				"NORMAL":30,
				"TEXCOORD_0":31
			},
			"material":0,
			"indices":28
		}]
	},
	{
		"name":"handle02",
		"primitives":[{
			"attributes":{
				"POSITION":33,
				"NORMAL":34,
				"TEXCOORD_0":35
			},
			"material":0,
			"indices":32
		}]
	},
	{
		"name":"handle03",
		"primitives":[{
			"attributes":{
				"POSITION":37,
				"NORMAL":38,
				"TEXCOORD_0":39
			},
			"material":0,
			"indices":36
		}]
	},
	{
		"name":"RT_wall01",
		"primitives":[{
			"attributes":{
				"POSITION":41,
				"NORMAL":42,
				"TEXCOORD_0":43
			},
			"material":2,
			"indices":40
		}]
	},
	{
		"name":"Back_wall",
		"primitives":[{
			"attributes":{
				"POSITION":45,
				"NORMAL":46,
				"TEXCOORD_0":47
			},
			"material":2,
			"indices":44
		}]
	},
	{
		"name":"LF_wall01",
		"primitives":[{
			"attributes":{
				"POSITION":49,
				"NORMAL":50,
				"TEXCOORD_0":51
			},
			"material":2,
			"indices":48
		}]
	},
	{
		"name":"LF_wall02",
		"primitives":[{
			"attributes":{
				"POSITION":53,
				"NORMAL":54,
				"TEXCOORD_0":55
			},
			"material":3,
			"indices":52
		}]
	},
	{
		"name":"top_bar",
		"primitives":[{
			"attributes":{
				"POSITION":57,
				"NORMAL":58,
				"TEXCOORD_0":59
			},
			"material":0,
			"indices":56
		}]
	},
	{
		"name":"floor",
		"primitives":[{
			"attributes":{
				"POSITION":61,
				"NORMAL":62,
				"TEXCOORD_0":63
			},
			"material":3,
			"indices":60
		}]
	}],
	"accessors":[{
		"bufferView":0,
		"type":"SCALAR",
		"componentType":5123,
		"count":564,
		"max":[131],
		"byteOffset":0,
		"min":[0]
	},
	{
		"bufferView":1,
		"type":"VEC3",
		"componentType":5126,
		"count":132,
		"max":[0.125,
		0.05000000074505806,
		0.125],
		"byteOffset":0,
		"min":[-0.125,
		-0.05000000074505806,
		-0.125]
	},
	{
		"bufferView":1,
		"type":"VEC3",
		"componentType":5126,
		"count":132,
		"max":[0.9874537587165833,
		0.9865753054618836,
		0.9865753054618836],
		"byteOffset":12,
		"min":[-0.9874537587165833,
		-0.9865753054618836,
		-0.9874538779258728]
	},
	{
		"bufferView":1,
		"type":"VEC2",
		"componentType":5126,
		"count":132,
		"max":[1.059999942779541,
		1.1499998569488526],
		"byteOffset":24,
		"min":[-0.05999999865889549,
		-0.15000000596046449]
	},
	{
		"bufferView":2,
		"type":"SCALAR",
		"componentType":5123,
		"count":564,
		"max":[131],
		"byteOffset":0,
		"min":[0]
	},
	{
		"bufferView":3,
		"type":"VEC3",
		"componentType":5126,
		"count":132,
		"max":[0.25,
		0.05000000074505806,
		0.25],
		"byteOffset":0,
		"min":[-0.25,
		-0.05000000074505806,
		-0.25]
	},
	{
		"bufferView":3,
		"type":"VEC3",
		"componentType":5126,
		"count":132,
		"max":[0.9874537587165833,
		0.9865753054618836,
		0.9865753054618836],
		"byteOffset":12,
		"min":[-0.9874537587165833,
		-0.9865753054618836,
		-0.9874538779258728]
	},
	{
		"bufferView":3,
		"type":"VEC2",
		"componentType":5126,
		"count":132,
		"max":[1.0299999713897706,
		1.1499998569488526],
		"byteOffset":24,
		"min":[-0.029999999329447748,
		-0.1499999761581421]
	},
	{
		"bufferView":4,
		"type":"SCALAR",
		"componentType":5123,
		"count":564,
		"max":[131],
		"byteOffset":0,
		"min":[0]
	},
	{
		"bufferView":5,
		"type":"VEC3",
		"componentType":5126,
		"count":132,
		"max":[0.6000000238418579,
		0.03999999910593033,
		1.0],
		"byteOffset":0,
		"min":[-0.6000000238418579,
		-0.03999999910593033,
		-1.0]
	},
	{
		"bufferView":5,
		"type":"VEC3",
		"componentType":5126,
		"count":132,
		"max":[0.9874537587165833,
		0.9865753054618836,
		0.9865753054618836],
		"byteOffset":12,
		"min":[-0.9874537587165833,
		-0.9865753054618836,
		-0.9874538779258728]
	},
	{
		"bufferView":5,
		"type":"VEC2",
		"componentType":5126,
		"count":132,
		"max":[1.0124999284744263,
		1.1875],
		"byteOffset":24,
		"min":[-0.012500000186264515,
		-0.1875]
	},
	{
		"bufferView":6,
		"type":"SCALAR",
		"componentType":5123,
		"count":468,
		"max":[103],
		"byteOffset":0,
		"min":[0]
	},
	{
		"bufferView":7,
		"type":"VEC3",
		"componentType":5126,
		"count":104,
		"max":[0.17499999701976777,
		0.07500000298023224,
		0.009999999776482582],
		"byteOffset":0,
		"min":[-0.17499999701976777,
		-0.07500000298023224,
		-0.009999999776482582]
	},
	{
		"bufferView":7,
		"type":"VEC3",
		"componentType":5126,
		"count":104,
		"max":[0.9952659010887146,
		0.9927283525466919,
		0.9946441650390625],
		"byteOffset":12,
		"min":[-0.9927283525466919,
		-0.9927283525466919,
		-0.9949978590011597]
	},
	{
		"bufferView":7,
		"type":"VEC2",
		"componentType":5126,
		"count":104,
		"max":[1.75,
		1.066666603088379],
		"byteOffset":24,
		"min":[-0.02857142873108387,
		-0.06666666269302368]
	},
	{
		"bufferView":8,
		"type":"SCALAR",
		"componentType":5123,
		"count":19512,
		"max":[4307],
		"byteOffset":0,
		"min":[0]
	},
	{
		"bufferView":9,
		"type":"VEC3",
		"componentType":5126,
		"count":4308,
		"max":[0.06957346946001053,
		0.11957346647977829,
		0.02500000037252903],
		"byteOffset":0,
		"min":[-0.06957346946001053,
		-0.11957346647977829,
		-0.02500000037252903]
	},
	{
		"bufferView":9,
		"type":"VEC3",
		"componentType":5126,
		"count":4308,
		"max":[0.9932628273963928,
		0.9946818947792053,
		1.0],
		"byteOffset":12,
		"min":[-0.9946818947792053,
		-0.9946818947792053,
		-1.0]
	},
	{
		"bufferView":9,
		"type":"VEC2",
		"componentType":5126,
		"count":4308,
		"max":[1.0766408443450928,
		1.0766408443450928],
		"byteOffset":24,
		"min":[-0.07664074748754502,
		-0.08903077244758606]
	},
	{
		"bufferView":10,
		"type":"SCALAR",
		"componentType":5123,
		"count":468,
		"max":[103],
		"byteOffset":0,
		"min":[0]
	},
	{
		"bufferView":11,
		"type":"VEC3",
		"componentType":5126,
		"count":104,
		"max":[0.125,
		0.02500000037252903,
		0.009999999776482582],
		"byteOffset":0,
		"min":[-0.125,
		-0.02500000037252903,
		-0.009999999776482582]
	},
	{
		"bufferView":11,
		"type":"VEC3",
		"componentType":5126,
		"count":104,
		"max":[0.9952659010887146,
		0.9927283525466919,
		0.9946441650390625],
		"byteOffset":12,
		"min":[-0.9927283525466919,
		-0.9927283525466919,
		-0.9949978590011597]
	},
	{
		"bufferView":11,
		"type":"VEC2",
		"componentType":5126,
		"count":104,
		"max":[1.75,
		1.2000000476837159],
		"byteOffset":24,
		"min":[-0.03999999910593033,
		-0.19999998807907105]
	},
	{
		"bufferView":12,
		"type":"SCALAR",
		"componentType":5123,
		"count":468,
		"max":[103],
		"byteOffset":0,
		"min":[0]
	},
	{
		"bufferView":13,
		"type":"VEC3",
		"componentType":5126,
		"count":104,
		"max":[0.15000000596046449,
		0.25,
		0.009999999776482582],
		"byteOffset":0,
		"min":[-0.15000000596046449,
		-0.25,
		-0.009999999776482582]
	},
	{
		"bufferView":13,
		"type":"VEC3",
		"componentType":5126,
		"count":104,
		"max":[0.9952659010887146,
		0.9927283525466919,
		0.9946441650390625],
		"byteOffset":12,
		"min":[-0.9927283525466919,
		-0.9927283525466919,
		-0.9949978590011597]
	},
	{
		"bufferView":13,
		"type":"VEC2",
		"componentType":5126,
		"count":104,
		"max":[1.75,
		1.0199999809265137],
		"byteOffset":24,
		"min":[-0.03333333507180214,
		-0.019999999552965165]
	},
	{
		"bufferView":14,
		"type":"SCALAR",
		"componentType":5123,
		"count":564,
		"max":[131],
		"byteOffset":0,
		"min":[0]
	},
	{
		"bufferView":15,
		"type":"VEC3",
		"componentType":5126,
		"count":132,
		"max":[0.03999999910593033,
		0.02500000037252903,
		1.0],
		"byteOffset":0,
		"min":[-0.03999999910593033,
		-0.02500000037252903,
		-1.0]
	},
	{
		"bufferView":15,
		"type":"VEC3",
		"componentType":5126,
		"count":132,
		"max":[0.9874537587165833,
		0.9865753054618836,
		0.9865753054618836],
		"byteOffset":12,
		"min":[-0.9874537587165833,
		-0.9865753054618836,
		-0.9874538779258728]
	},
	{
		"bufferView":15,
		"type":"VEC2",
		"componentType":5126,
		"count":132,
		"max":[1.1875,
		1.2999999523162842],
		"byteOffset":24,
		"min":[-0.1875,
		-0.30000001192092898]
	},
	{
		"bufferView":16,
		"type":"SCALAR",
		"componentType":5123,
		"count":564,
		"max":[131],
		"byteOffset":0,
		"min":[0]
	},
	{
		"bufferView":17,
		"type":"VEC3",
		"componentType":5126,
		"count":132,
		"max":[0.03999999910593033,
		0.02500000037252903,
		1.0],
		"byteOffset":0,
		"min":[-0.03999999910593033,
		-0.02500000037252903,
		-1.0]
	},
	{
		"bufferView":17,
		"type":"VEC3",
		"componentType":5126,
		"count":132,
		"max":[0.9874537587165833,
		0.9865753054618836,
		0.9865753054618836],
		"byteOffset":12,
		"min":[-0.9874537587165833,
		-0.9865753054618836,
		-0.9874538779258728]
	},
	{
		"bufferView":17,
		"type":"VEC2",
		"componentType":5126,
		"count":132,
		"max":[1.1875,
		1.2999999523162842],
		"byteOffset":24,
		"min":[-0.1875,
		-0.30000001192092898]
	},
	{
		"bufferView":18,
		"type":"SCALAR",
		"componentType":5123,
		"count":564,
		"max":[131],
		"byteOffset":0,
		"min":[0]
	},
	{
		"bufferView":19,
		"type":"VEC3",
		"componentType":5126,
		"count":132,
		"max":[0.03999999910593033,
		0.02500000037252903,
		0.8500000238418579],
		"byteOffset":0,
		"min":[-0.03999999910593033,
		-0.02500000037252903,
		-0.8500000238418579]
	},
	{
		"bufferView":19,
		"type":"VEC3",
		"componentType":5126,
		"count":132,
		"max":[0.9874537587165833,
		0.9865753054618836,
		0.9865753054618836],
		"byteOffset":12,
		"min":[-0.9874537587165833,
		-0.9865753054618836,
		-0.9874538779258728]
	},
	{
		"bufferView":19,
		"type":"VEC2",
		"componentType":5126,
		"count":132,
		"max":[1.1875,
		1.2999999523162842],
		"byteOffset":24,
		"min":[-0.1875,
		-0.30000001192092898]
	},
	{
		"bufferView":20,
		"type":"SCALAR",
		"componentType":5123,
		"count":564,
		"max":[131],
		"byteOffset":0,
		"min":[0]
	},
	{
		"bufferView":21,
		"type":"VEC3",
		"componentType":5126,
		"count":132,
		"max":[1.0449999570846558,
		1.5,
		0.07500000298023224],
		"byteOffset":0,
		"min":[-1.0449999570846558,
		-1.5,
		-0.07500000298023224]
	},
	{
		"bufferView":21,
		"type":"VEC3",
		"componentType":5126,
		"count":132,
		"max":[0.9595279097557068,
		0.9902581572532654,
		0.992854654788971],
		"byteOffset":12,
		"min":[-0.9595279097557068,
		-0.9902581572532654,
		-0.992854654788971]
	},
	{
		"bufferView":21,
		"type":"VEC2",
		"componentType":5126,
		"count":132,
		"max":[1.100000023841858,
		1.0049998760223389],
		"byteOffset":24,
		"min":[-0.013636363670229912,
		-0.004999999888241291]
	},
	{
		"bufferView":22,
		"type":"SCALAR",
		"componentType":5123,
		"count":564,
		"max":[131],
		"byteOffset":0,
		"min":[0]
	},
	{
		"bufferView":23,
		"type":"VEC3",
		"componentType":5126,
		"count":132,
		"max":[1.0,
		1.5,
		0.03999999910593033],
		"byteOffset":0,
		"min":[-1.0,
		-1.5,
		-0.03999999910593033]
	},
	{
		"bufferView":23,
		"type":"VEC3",
		"componentType":5126,
		"count":132,
		"max":[0.9874537587165833,
		0.9865753054618836,
		0.9865753054618836],
		"byteOffset":12,
		"min":[-0.9874537587165833,
		-0.9865753054618836,
		-0.9874538779258728]
	},
	{
		"bufferView":23,
		"type":"VEC2",
		"componentType":5126,
		"count":132,
		"max":[1.1875,
		1.0049998760223389],
		"byteOffset":24,
		"min":[-0.007499999832361937,
		-0.004999999888241291]
	},
	{
		"bufferView":24,
		"type":"SCALAR",
		"componentType":5123,
		"count":564,
		"max":[131],
		"byteOffset":0,
		"min":[0]
	},
	{
		"bufferView":25,
		"type":"VEC3",
		"componentType":5126,
		"count":132,
		"max":[0.5,
		1.5,
		0.07500000298023224],
		"byteOffset":0,
		"min":[-0.5,
		-1.5,
		-0.07500000298023224]
	},
	{
		"bufferView":25,
		"type":"VEC3",
		"componentType":5126,
		"count":132,
		"max":[0.9874537587165833,
		0.9865753054618836,
		0.9865753054618836],
		"byteOffset":12,
		"min":[-0.9874537587165833,
		-0.9865753054618836,
		-0.9874538779258728]
	},
	{
		"bufferView":25,
		"type":"VEC2",
		"componentType":5126,
		"count":132,
		"max":[1.100000023841858,
		1.0049998760223389],
		"byteOffset":24,
		"min":[-0.015000000596046448,
		-0.004999999888241291]
	},
	{
		"bufferView":26,
		"type":"SCALAR",
		"componentType":5123,
		"count":564,
		"max":[131],
		"byteOffset":0,
		"min":[0]
	},
	{
		"bufferView":27,
		"type":"VEC3",
		"componentType":5126,
		"count":132,
		"max":[0.5,
		1.5,
		0.07500000298023224],
		"byteOffset":0,
		"min":[-0.5,
		-1.5,
		-0.07500000298023224]
	},
	{
		"bufferView":27,
		"type":"VEC3",
		"componentType":5126,
		"count":132,
		"max":[0.9874537587165833,
		0.9865753054618836,
		0.9865753054618836],
		"byteOffset":12,
		"min":[-0.9874537587165833,
		-0.9865753054618836,
		-0.9874538779258728]
	},
	{
		"bufferView":27,
		"type":"VEC2",
		"componentType":5126,
		"count":132,
		"max":[1.100000023841858,
		1.0049998760223389],
		"byteOffset":24,
		"min":[-0.015000000596046448,
		-0.004999999888241291]
	},
	{
		"bufferView":28,
		"type":"SCALAR",
		"componentType":5123,
		"count":564,
		"max":[131],
		"byteOffset":0,
		"min":[0]
	},
	{
		"bufferView":29,
		"type":"VEC3",
		"componentType":5126,
		"count":132,
		"max":[0.07500000298023224,
		0.125,
		1.0],
		"byteOffset":0,
		"min":[-0.07500000298023224,
		-0.125,
		-1.0]
	},
	{
		"bufferView":29,
		"type":"VEC3",
		"componentType":5126,
		"count":132,
		"max":[0.9874537587165833,
		0.9865753054618836,
		0.9865753054618836],
		"byteOffset":12,
		"min":[-0.9874537587165833,
		-0.9865753054618836,
		-0.9874538779258728]
	},
	{
		"bufferView":29,
		"type":"VEC2",
		"componentType":5126,
		"count":132,
		"max":[1.100000023841858,
		1.059999942779541],
		"byteOffset":24,
		"min":[-0.10000000894069672,
		-0.06000000238418579]
	},
	{
		"bufferView":30,
		"type":"SCALAR",
		"componentType":5123,
		"count":564,
		"max":[131],
		"byteOffset":0,
		"min":[0]
	},
	{
		"bufferView":31,
		"type":"VEC3",
		"componentType":5126,
		"count":132,
		"max":[1.0499999523162842,
		0.07500000298023224,
		1.0],
		"byteOffset":0,
		"min":[-1.0499999523162842,
		-0.07500000298023224,
		-1.0]
	},
	{
		"bufferView":31,
		"type":"VEC3",
		"componentType":5126,
		"count":132,
		"max":[0.9874537587165833,
		0.9865753054618836,
		0.9865753054618836],
		"byteOffset":12,
		"min":[-0.9874537587165833,
		-0.9865753054618836,
		-0.9874538779258728]
	},
	{
		"bufferView":31,
		"type":"VEC2",
		"componentType":5126,
		"count":132,
		"max":[1.0075000524520875,
		1.0999999046325684],
		"byteOffset":24,
		"min":[-0.00714285671710968,
		-0.09999999403953552]
	}],
	"bufferViews":[{
		"target":34963,
		"buffer":0,
		"byteOffset":0,
		"byteLength":1128
	},
	{
		"target":34962,
		"buffer":0,
		"byteOffset":1128,
		"byteLength":4224,
		"byteStride":32
	},
	{
		"target":34963,
		"buffer":1,
		"byteOffset":0,
		"byteLength":1128
	},
	{
		"target":34962,
		"buffer":1,
		"byteOffset":1128,
		"byteLength":4224,
		"byteStride":32
	},
	{
		"target":34963,
		"buffer":2,
		"byteOffset":0,
		"byteLength":1128
	},
	{
		"target":34962,
		"buffer":2,
		"byteOffset":1128,
		"byteLength":4224,
		"byteStride":32
	},
	{
		"target":34963,
		"buffer":3,
		"byteOffset":0,
		"byteLength":936
	},
	{
		"target":34962,
		"buffer":3,
		"byteOffset":936,
		"byteLength":3328,
		"byteStride":32
	},
	{
		"target":34963,
		"buffer":4,
		"byteOffset":0,
		"byteLength":39024
	},
	{
		"target":34962,
		"buffer":4,
		"byteOffset":39024,
		"byteLength":137856,
		"byteStride":32
	},
	{
		"target":34963,
		"buffer":5,
		"byteOffset":0,
		"byteLength":936
	},
	{
		"target":34962,
		"buffer":5,
		"byteOffset":936,
		"byteLength":3328,
		"byteStride":32
	},
	{
		"target":34963,
		"buffer":6,
		"byteOffset":0,
		"byteLength":936
	},
	{
		"target":34962,
		"buffer":6,
		"byteOffset":936,
		"byteLength":3328,
		"byteStride":32
	},
	{
		"target":34963,
		"buffer":7,
		"byteOffset":0,
		"byteLength":1128
	},
	{
		"target":34962,
		"buffer":7,
		"byteOffset":1128,
		"byteLength":4224,
		"byteStride":32
	},
	{
		"target":34963,
		"buffer":8,
		"byteOffset":0,
		"byteLength":1128
	},
	{
		"target":34962,
		"buffer":8,
		"byteOffset":1128,
		"byteLength":4224,
		"byteStride":32
	},
	{
		"target":34963,
		"buffer":9,
		"byteOffset":0,
		"byteLength":1128
	},
	{
		"target":34962,
		"buffer":9,
		"byteOffset":1128,
		"byteLength":4224,
		"byteStride":32
	},
	{
		"target":34963,
		"buffer":10,
		"byteOffset":0,
		"byteLength":1128
	},
	{
		"target":34962,
		"buffer":10,
		"byteOffset":1128,
		"byteLength":4224,
		"byteStride":32
	},
	{
		"target":34963,
		"buffer":11,
		"byteOffset":0,
		"byteLength":1128
	},
	{
		"target":34962,
		"buffer":11,
		"byteOffset":1128,
		"byteLength":4224,
		"byteStride":32
	},
	{
		"target":34963,
		"buffer":12,
		"byteOffset":0,
		"byteLength":1128
	},
	{
		"target":34962,
		"buffer":12,
		"byteOffset":1128,
		"byteLength":4224,
		"byteStride":32
	},
	{
		"target":34963,
		"buffer":13,
		"byteOffset":0,
		"byteLength":1128
	},
	{
		"target":34962,
		"buffer":13,
		"byteOffset":1128,
		"byteLength":4224,
		"byteStride":32
	},
	{
		"target":34963,
		"buffer":14,
		"byteOffset":0,
		"byteLength":1128
	},
	{
		"target":34962,
		"buffer":14,
		"byteOffset":1128,
		"byteLength":4224,
		"byteStride":32
	},
	{
		"target":34963,
		"buffer":15,
		"byteOffset":0,
		"byteLength":1128
	},
	{
		"target":34962,
		"buffer":15,
		"byteOffset":1128,
		"byteLength":4224,
		"byteStride":32
	}],
	"buffers":[{
		"uri":"data:application/octet-stream;base64,",
		"byteLength":5352
	},
	{
		"uri":"data:application/octet-stream;base64,",
		"byteLength":5352
	},
	{
		"uri":"data:application/octet-stream;base64,",
		"byteLength":5352
	},
	{
		"uri":"data:application/octet-stream;base64,",
		"byteLength":4264
	},
	{
		"uri":"data:application/octet-stream;base64,",
		"byteLength":176880
	},
	{
		"uri":"data:application/octet-stream;base64,",
		"byteLength":4264
	},
	{
		"uri":"data:application/octet-stream;base64,",
		"byteLength":4264
	},
	{
		"uri":"data:application/octet-stream;base64,",
		"byteLength":5352
	},
	{
		"uri":"data:application/octet-stream;base64,",
		"byteLength":5352
	},
	{
		"uri":"data:application/octet-stream;base64,",
		"byteLength":5352
	},
	{
		"uri":"data:application/octet-stream;base64,",
		"byteLength":5352
	},
	{
		"uri":"data:application/octet-stream;base64,",
		"byteLength":5352
	},
	{
		"uri":"data:application/octet-stream;base64,",
		"byteLength":5352
	},
	{
		"uri":"data:application/octet-stream;base64,",
		"byteLength":5352
	},
	{
		"uri":"data:application/octet-stream;base64,",
		"byteLength":5352
	},
	{
		"uri":"data:application/octet-stream;base64,",
		"byteLength":5352
	}],
	"materials":[{
		"emissiveFactor":[0.0,
		0.0,
		0.0],
		"pbrMetallicRoughness":{
			"baseColorFactor":[0.9023999999999999,
			0.9206399999999999,
			0.96,
			1.0],
			"metallicFactor":0.0,
			"roughnessFactor":0.5
		},
		"alphaMode":"OPAQUE",
		"doubleSided":false,
		"name":"white"
	},
	{
		"emissiveFactor":[0.0,
		0.0,
		0.0],
		"pbrMetallicRoughness":{
			"baseColorFactor":[0.12239999999999997,
			0.68,
			0.68,
			1.0],
			"metallicFactor":0.0,
			"roughnessFactor":0.5
		},
		"alphaMode":"OPAQUE",
		"doubleSided":false,
		"name":"blue"
	},
	{
		"emissiveFactor":[0.803921568627451,
		1.0,
		1.0],
		"pbrMetallicRoughness":{
			"baseColorFactor":[0.6000000000000001,
			0.6633333333333336,
			0.8,
			0.0],
			"metallicFactor":0.0,
			"roughnessFactor":0.5
		},
		"alphaMode":"BLEND",
		"doubleSided":false,
		"name":"glass"
	},
	{
		"emissiveFactor":[0.0,
		0.0,
		0.0],
		"pbrMetallicRoughness":{
			"baseColorFactor":[0.8742,
			0.9400000000000001,
			0.9400000000000001,
			1.0],
			"metallicFactor":0.0,
			"roughnessFactor":0.5
		},
		"alphaMode":"OPAQUE",
		"doubleSided":false,
		"name":"light"
	}]
}