{
	"asset":{
		"version":"2.0",
		"generator":"Maxon Cinema 4D 2023.2.2 (#200000219)"
	},
	"scenes":[{
		"nodes":[0,
		1,
		2,
		3,
		4,
		5,
		6,
		7]
	}],
	"nodes":[{
		"name":"chairs",
		"mesh":0,
		"translation":[-3.530115842819214,
		0.6499999761581421,
		-1.7000000476837159],
		"rotation":[0.0,
		0.0,
		0.0,
		-1.0],
		"scale":[1.0,
		1.0,
		1.0]
	},
	{
		"name":"chair_handle01",
		"mesh":1,
		"translation":[-3.450000047683716,
		0.20000000298023225,
		-3.6489999294281008],
		"rotation":[0.0,
		0.0,
		0.0,
		-1.0],
		"scale":[1.0,
		1.0,
		1.0]
	},
	{
		"name":"chair_handle02",
		"mesh":2,
		"translation":[-3.450000047683716,
		0.20000000298023225,
		0.24899999797344209],
		"rotation":[0.0,
		0.0,
		0.0,
		-1.0],
		"scale":[1.0,
		1.0,
		1.0]
	},
	{
		"name":"main_floor",
		"mesh":3,
		"translation":[0.0,
		-0.05000000074505806,
		0.0],
		"rotation":[0.0,
		0.0,
		0.0,
		-1.0],
		"scale":[1.0,
		1.0,
		1.0]
	},
	{
		"name":"floor_line",
		"mesh":4,
		"translation":[0.0,
		0.10000000149011612,
		0.0],
		"rotation":[0.0,
		0.0,
		0.0,
		-1.0],
		"scale":[1.0,
		1.0,
		1.0]
	},
	{
		"name":"pot",
		"mesh":5,
		"translation":[3.549999952316284,
		0.20000000298023225,
		3.450000047683716],
		"rotation":[0.0,
		0.0,
		0.0,
		-1.0],
		"scale":[1.0,
		1.0,
		1.0]
	},
	{
		"name":"stem",
		"mesh":6,
		"translation":[3.541994333267212,
		0.7719926238059998,
		3.450000047683716],
		"rotation":[0.0,
		0.0,
		0.0,
		-1.0],
		"scale":[1.0,
		1.0,
		1.0]
	},
	{
		"name":"tree",
		"mesh":7,
		"translation":[3.549999952316284,
		1.415094017982483,
		3.450000047683716],
		"rotation":[0.0,
		0.0,
		0.0,
		-1.0],
		"scale":[1.0,
		1.0,
		1.0]
	}],
	"meshes":[{
		"name":"chairs",
		"primitives":[{
			"attributes":{
				"POSITION":1,
				"NORMAL":2,
				"TEXCOORD_0":3
			},
			"indices":0,
			"material":0
		}]
	},
	{
		"name":"chair_handle01",
		"primitives":[{
			"attributes":{
				"POSITION":5,
				"NORMAL":6,
				"TEXCOORD_0":7
			},
			"indices":4,
			"material":1
		}]
	},
	{
		"name":"chair_handle02",
		"primitives":[{
			"attributes":{
				"POSITION":9,
				"NORMAL":10,
				"TEXCOORD_0":11
			},
			"indices":8,
			"material":1
		}]
	},
	{
		"name":"main_floor",
		"primitives":[{
			"attributes":{
				"POSITION":13,
				"NORMAL":14,
				"TEXCOORD_0":15
			},
			"indices":12,
			"material":2
		}]
	},
	{
		"name":"floor_line",
		"primitives":[{
			"attributes":{
				"POSITION":17,
				"NORMAL":18,
				"TEXCOORD_0":19
			},
			"indices":16,
			"material":3
		}]
	},
	{
		"name":"pot",
		"primitives":[{
			"attributes":{
				"POSITION":21,
				"NORMAL":22,
				"TEXCOORD_0":23
			},
			"indices":20,
			"material":4
		}]
	},
	{
		"name":"stem",
		"primitives":[{
			"attributes":{
				"POSITION":25,
				"NORMAL":26,
				"TEXCOORD_0":27
			},
			"indices":24,
			"material":5
		}]
	},
	{
		"name":"tree",
		"primitives":[{
			"attributes":{
				"POSITION":29,
				"NORMAL":30,
				"TEXCOORD_0":31
			},
			"indices":28,
			"material":6
		}]
	}],
	"accessors":[{
		"bufferView":0,
		"type":"SCALAR",
		"componentType":5123,
		"count":4512,
		"byteOffset":0,
		"min":[0],
		"max":[1055]
	},
	{
		"bufferView":1,
		"type":"VEC3",
		"componentType":5126,
		"count":1056,
		"byteOffset":0,
		"min":[-0.3180103898048401,
		-0.27272117137908938,
		-1.899999976158142],
		"max":[0.6010472178459168,
		0.6235901713371277,
		1.899999976158142]
	},
	{
		"bufferView":1,
		"type":"VEC3",
		"componentType":5126,
		"count":1056,
		"byteOffset":12,
		"min":[-0.9935786128044128,
		-0.9935786128044128,
		-0.9874552488327026],
		"max":[0.9935786128044128,
		0.9918435215950012,
		0.986580491065979]
	},
	{
		"bufferView":1,
		"type":"VEC2",
		"componentType":5126,
		"count":1056,
		"byteOffset":24,
		"min":[-0.01249999925494194,
		-0.09999999403953552],
		"max":[1.0125000476837159,
		1.0999999046325684]
	},
	{
		"bufferView":2,
		"type":"SCALAR",
		"componentType":5123,
		"count":204,
		"byteOffset":0,
		"min":[0],
		"max":[87]
	},
	{
		"bufferView":3,
		"type":"VEC3",
		"componentType":5126,
		"count":88,
		"byteOffset":0,
		"min":[-0.22555997967720033,
		-0.21290628612041474,
		-0.045499999076128009],
		"max":[0.22555997967720033,
		0.21290628612041474,
		0.045499999076128009]
	},
	{
		"bufferView":3,
		"type":"VEC3",
		"componentType":5126,
		"count":88,
		"byteOffset":12,
		"min":[-1.0,
		-1.0,
		-1.0],
		"max":[1.0,
		1.0,
		1.0]
	},
	{
		"bufferView":3,
		"type":"VEC2",
		"componentType":5126,
		"count":88,
		"byteOffset":24,
		"min":[0.0,
		0.0],
		"max":[1.0,
		1.0]
	},
	{
		"bufferView":4,
		"type":"SCALAR",
		"componentType":5123,
		"count":204,
		"byteOffset":0,
		"min":[0],
		"max":[87]
	},
	{
		"bufferView":5,
		"type":"VEC3",
		"componentType":5126,
		"count":88,
		"byteOffset":0,
		"min":[-0.22555997967720033,
		-0.21290628612041474,
		-0.045499999076128009],
		"max":[0.22555997967720033,
		0.21290628612041474,
		0.045499999076128009]
	},
	{
		"bufferView":5,
		"type":"VEC3",
		"componentType":5126,
		"count":88,
		"byteOffset":12,
		"min":[-1.0,
		-1.0,
		-1.0],
		"max":[1.0,
		1.0,
		1.0]
	},
	{
		"bufferView":5,
		"type":"VEC2",
		"componentType":5126,
		"count":88,
		"byteOffset":24,
		"min":[0.0,
		0.0],
		"max":[1.0,
		1.0]
	},
	{
		"bufferView":6,
		"type":"SCALAR",
		"componentType":5123,
		"count":564,
		"byteOffset":0,
		"min":[0],
		"max":[131]
	},
	{
		"bufferView":7,
		"type":"VEC3",
		"componentType":5126,
		"count":132,
		"byteOffset":0,
		"min":[-4.0,
		-0.02500000037252903,
		-4.0],
		"max":[4.0,
		0.02500000037252903,
		4.0]
	},
	{
		"bufferView":7,
		"type":"VEC3",
		"componentType":5126,
		"count":132,
		"byteOffset":12,
		"min":[-0.9874537587165833,
		-0.9865753054618836,
		-0.9874538779258728],
		"max":[0.9874537587165833,
		0.9865753054618836,
		0.9865753054618836]
	},
	{
		"bufferView":7,
		"type":"VEC2",
		"componentType":5126,
		"count":132,
		"byteOffset":24,
		"min":[-0.001875000074505806,
		-0.2999999523162842],
		"max":[1.0018749237060547,
		1.2999999523162842]
	},
	{
		"bufferView":8,
		"type":"SCALAR",
		"componentType":5123,
		"count":696,
		"byteOffset":0,
		"min":[0],
		"max":[182]
	},
	{
		"bufferView":9,
		"type":"VEC3",
		"componentType":5126,
		"count":183,
		"byteOffset":0,
		"min":[-4.050000190734863,
		-0.17499999701976777,
		-4.050000190734863],
		"max":[4.050000190734863,
		-0.02500000037252903,
		4.050000190734863]
	},
	{
		"bufferView":9,
		"type":"VEC3",
		"componentType":5126,
		"count":183,
		"byteOffset":12,
		"min":[-0.9942991137504578,
		-1.0,
		-0.9870860576629639],
		"max":[0.9942991137504578,
		1.0,
		0.9942991137504578]
	},
	{
		"bufferView":9,
		"type":"VEC2",
		"componentType":5126,
		"count":183,
		"byteOffset":24,
		"min":[-0.0018518518190830947,
		-0.0018518518190830947],
		"max":[1.0018517971038819,
		1.0018517971038819]
	},
	{
		"bufferView":10,
		"type":"SCALAR",
		"componentType":5123,
		"count":564,
		"byteOffset":0,
		"min":[0],
		"max":[143]
	},
	{
		"bufferView":11,
		"type":"VEC3",
		"componentType":5126,
		"count":144,
		"byteOffset":0,
		"min":[-0.3127748966217041,
		-0.20000000298023225,
		-0.3127748966217041],
		"max":[0.3127748966217041,
		0.20000000298023225,
		0.3127748966217041]
	},
	{
		"bufferView":11,
		"type":"VEC3",
		"componentType":5126,
		"count":144,
		"byteOffset":12,
		"min":[-0.9916000366210938,
		-0.9950207471847534,
		-0.9906371831893921],
		"max":[0.9906371831893921,
		0.9925795197486877,
		0.9936522245407105]
	},
	{
		"bufferView":11,
		"type":"VEC2",
		"componentType":5126,
		"count":144,
		"byteOffset":24,
		"min":[-0.02885977365076542,
		-0.02472340688109398],
		"max":[1.0288597345352173,
		1.0247232913970948]
	},
	{
		"bufferView":12,
		"type":"SCALAR",
		"componentType":5123,
		"count":3384,
		"byteOffset":0,
		"min":[0],
		"max":[791]
	},
	{
		"bufferView":13,
		"type":"VEC3",
		"componentType":5126,
		"count":792,
		"byteOffset":0,
		"min":[-0.07500000298023224,
		-0.3499999940395355,
		-0.07500000298023224],
		"max":[0.07500000298023224,
		0.3499999940395355,
		0.07500000298023224]
	},
	{
		"bufferView":13,
		"type":"VEC3",
		"componentType":5126,
		"count":792,
		"byteOffset":12,
		"min":[-0.9874537587165833,
		-0.9865753054618836,
		-0.9874538779258728],
		"max":[0.9874537587165833,
		0.9865753054618836,
		0.9865753054618836]
	},
	{
		"bufferView":13,
		"type":"VEC2",
		"componentType":5126,
		"count":792,
		"byteOffset":24,
		"min":[-0.06666667014360428,
		-0.09999999403953552],
		"max":[1.0666667222976685,
		1.0999999046325684]
	},
	{
		"bufferView":14,
		"type":"SCALAR",
		"componentType":5123,
		"count":564,
		"byteOffset":0,
		"min":[0],
		"max":[131]
	},
	{
		"bufferView":15,
		"type":"VEC3",
		"componentType":5126,
		"count":132,
		"byteOffset":0,
		"min":[-0.30000001192092898,
		-0.30000001192092898,
		-0.30000001192092898],
		"max":[0.30000001192092898,
		0.30000001192092898,
		0.30000001192092898]
	},
	{
		"bufferView":15,
		"type":"VEC3",
		"componentType":5126,
		"count":132,
		"byteOffset":12,
		"min":[-0.9874537587165833,
		-0.9865753054618836,
		-0.9874538779258728],
		"max":[0.9874537587165833,
		0.9865753054618836,
		0.9865753054618836]
	},
	{
		"bufferView":15,
		"type":"VEC2",
		"componentType":5126,
		"count":132,
		"byteOffset":24,
		"min":[-0.01666666567325592,
		-0.01666666567325592],
		"max":[1.0166666507720948,
		1.0166666507720948]
	}],
	"bufferViews":[{
		"buffer":0,
		"byteOffset":0,
		"byteLength":9024,
		"target":34963
	},
	{
		"buffer":0,
		"byteOffset":9024,
		"byteLength":33792,
		"target":34962,
		"byteStride":32
	},
	{
		"buffer":1,
		"byteOffset":0,
		"byteLength":408,
		"target":34963
	},
	{
		"buffer":1,
		"byteOffset":408,
		"byteLength":2816,
		"target":34962,
		"byteStride":32
	},
	{
		"buffer":2,
		"byteOffset":0,
		"byteLength":408,
		"target":34963
	},
	{
		"buffer":2,
		"byteOffset":408,
		"byteLength":2816,
		"target":34962,
		"byteStride":32
	},
	{
		"buffer":3,
		"byteOffset":0,
		"byteLength":1128,
		"target":34963
	},
	{
		"buffer":3,
		"byteOffset":1128,
		"byteLength":4224,
		"target":34962,
		"byteStride":32
	},
	{
		"buffer":4,
		"byteOffset":0,
		"byteLength":1392,
		"target":34963
	},
	{
		"buffer":4,
		"byteOffset":1392,
		"byteLength":5856,
		"target":34962,
		"byteStride":32
	},
	{
		"buffer":5,
		"byteOffset":0,
		"byteLength":1128,
		"target":34963
	},
	{
		"buffer":5,
		"byteOffset":1128,
		"byteLength":4608,
		"target":34962,
		"byteStride":32
	},
	{
		"buffer":6,
		"byteOffset":0,
		"byteLength":6768,
		"target":34963
	},
	{
		"buffer":6,
		"byteOffset":6768,
		"byteLength":25344,
		"target":34962,
		"byteStride":32
	},
	{
		"buffer":7,
		"byteOffset":0,
		"byteLength":1128,
		"target":34963
	},
	{
		"buffer":7,
		"byteOffset":1128,
		"byteLength":4224,
		"target":34962,
		"byteStride":32
	}],
	"buffers":[{
		"uri":"data:application/octet-stream;base64,",
		"byteLength":42816
	},
	{
		"uri":"data:application/octet-stream;base64,",
		"byteLength":3224
	},
	{
		"uri":"data:application/octet-stream;base64,",
		"byteLength":3224
	},
	{
		"uri":"data:application/octet-stream;base64,",
		"byteLength":5352
	},
	{
		"uri":"data:application/octet-stream;base64,",
		"byteLength":7248
	},
	{
		"uri":"data:application/octet-stream;base64,",
		"byteLength":5736
	},
	{
		"uri":"data:application/octet-stream;base64,",
		"byteLength":32112
	},
	{
		"uri":"data:application/octet-stream;base64,",
		"byteLength":5352
	}],
	"materials":[{
		"emissiveFactor":[0.0,
		0.0,
		0.0],
		"pbrMetallicRoughness":{
			"baseColorFactor":[0.98,
			0.8036000000000001,
			0.8036000000000001,
			1.0],
			"metallicFactor":0.0,
			"roughnessFactor":0.5
		},
		"alphaMode":"OPAQUE",
		"doubleSided":false,
		"name":"pink"
	},
	{
		"emissiveFactor":[0.0,
		0.0,
		0.0],
		"pbrMetallicRoughness":{
			"baseColorFactor":[0.9023999999999999,
			0.9206399999999999,
			0.96,
			1.0],
			"metallicFactor":0.0,
			"roughnessFactor":0.5
		},
		"alphaMode":"OPAQUE",
		"doubleSided":false,
		"name":"white"
	},
	{
		"emissiveFactor":[0.0,
		0.0,
		0.0],
		"pbrMetallicRoughness":{
			"baseColorFactor":[0.7645959999999999,
			0.8085196,
			0.8134,
			1.0],
			"metallicFactor":0.0,
			"roughnessFactor":0.41500000000000006
		},
		"alphaMode":"OPAQUE",
		"doubleSided":false,
		"name":"floor"
	},
	{
		"emissiveFactor":[0.0,
		0.0,
		0.0],
		"pbrMetallicRoughness":{
			"baseColorFactor":[0.8742,
			0.9400000000000001,
			0.9400000000000001,
			1.0],
			"metallicFactor":0.0,
			"roughnessFactor":0.5
		},
		"alphaMode":"OPAQUE",
		"doubleSided":false,
		"name":"light"
	},
	{
		"emissiveFactor":[0.0,
		0.0,
		0.0],
		"pbrMetallicRoughness":{
			"baseColorFactor":[0.2196078431372549,
			0.2196078431372549,
			0.2196078431372549,
			1.0],
			"metallicFactor":0.0,
			"roughnessFactor":0.5
		},
		"alphaMode":"OPAQUE",
		"doubleSided":false,
		"name":"pink"
	},
	{
		"emissiveFactor":[0.0,
		0.0,
		0.0],
		"pbrMetallicRoughness":{
			"baseColorFactor":[0.68,
			0.48483999999999996,
			0.12239999999999997,
			1.0],
			"metallicFactor":0.0,
			"roughnessFactor":0.5
		},
		"alphaMode":"OPAQUE",
		"doubleSided":false,
		"name":"brown"
	},
	{
		"emissiveFactor":[0.0,
		0.0,
		0.0],
		"pbrMetallicRoughness":{
			"baseColorFactor":[0.1781599999999998,
			0.68,
			0.12239999999999997,
			1.0],
			"metallicFactor":0.0,
			"roughnessFactor":0.5
		},
		"alphaMode":"OPAQUE",
		"doubleSided":false,
		"name":"green"
	}]
}